<?xml version="1.0" encoding="UTF-8" standalone="no"?>
<svg width="394px" height="502px" viewBox="0 0 394 502" version="1.1" xmlns="http://www.w3.org/2000/svg" xmlns:xlink="http://www.w3.org/1999/xlink" xmlns:sketch="http://www.bohemiancoding.com/sketch/ns">
    <!-- Generator: Sketch 3.4.4 (17249) - http://www.bohemiancoding.com/sketch -->
    <title>icon-raspberrypi</title>
    <desc>Created with Sketch.</desc>
    <defs></defs>
    <g id="Page-1" stroke="none" stroke-width="1" fill="none" fill-rule="evenodd" sketch:type="MSPage">
        <g id="icon-raspberrypi" sketch:type="MSLayerGroup" fill="#D8D8D8">
            <path d="M43.958,111.338 C46.221,113.21 48.411,114.546 49.597,115.35 C50.86,121.61 53.49,127.522 66.065,130.788 C68.141,140.122 75.697,141.735 83.018,143.693 C58.828,157.755 38.084,176.253 38.225,221.645 L34.682,227.965 C6.944,244.832 -18.01,299.047 21.015,343.111 C23.562,356.904 27.838,366.811 31.643,377.776 C37.335,421.961 74.487,442.65 84.288,445.096 C98.647,456.033 113.939,466.41 134.637,473.682 C154.144,493.801 175.281,501.47 196.531,501.458 C196.843,501.458 239.859,493.803 259.368,473.682 C280.062,466.411 295.354,456.033 309.716,445.096 C319.514,442.65 356.666,421.96 362.359,377.776 C366.166,366.811 370.441,356.904 372.991,343.111 C412.011,299.042 387.058,244.826 359.32,227.96 L355.772,221.64 C355.913,176.252 335.168,157.752 310.979,143.687 C318.298,141.73 325.856,140.117 327.93,130.783 C340.506,127.515 343.137,121.605 344.399,115.342 C347.688,113.117 358.696,106.865 357.544,96.117 C363.707,91.797 367.144,86.255 365.397,78.402 C372.021,71.067 373.763,65.005 370.952,59.416 C378.902,49.39 375.375,44.191 371.981,38.929 C377.937,27.964 372.681,16.203 356.031,18.174 C349.41,8.294 334.971,10.538 332.738,10.583 C330.241,7.413 326.943,4.696 316.796,6.013 C310.221,0.064 302.871,1.079 295.291,4 C286.292,-3.102 280.337,2.591 273.532,4.744 C262.636,1.183 260.143,6.06 254.792,8.048 C242.905,5.536 239.295,11.003 233.597,16.773 L226.972,16.641 C209.046,27.204 200.142,48.715 196.985,59.773 C193.828,48.712 184.943,27.204 167.023,16.641 L160.396,16.773 C154.69,11.003 151.081,5.536 139.197,8.048 C133.842,6.061 131.358,1.183 120.452,4.744 C115.987,3.331 111.881,0.396 107.047,0.545 L107.046,0.548 C104.515,0.627 101.792,1.564 98.701,4.001 C91.12,1.081 83.77,0.063 77.199,6.014 C67.051,4.698 63.755,7.413 61.256,10.586 C59.027,10.541 44.586,8.296 37.963,18.175 C21.32,16.206 16.06,27.964 22.021,38.932 C18.62,44.193 15.097,49.391 23.048,59.426 C20.235,65.012 21.98,71.073 28.602,78.408 C26.855,86.264 30.292,91.803 36.455,96.123 C35.719,102.993 39.949,108.018 43.957,111.336 L43.958,111.338 Z M334.234,220.204 C332.789,238.488 238.94,156.538 255.141,153.816 C299.118,146.39 335.713,172.519 334.234,220.204 L334.234,220.204 Z M295.371,311.311 C271.768,326.775 237.757,316.792 219.4,289.017 C201.048,261.245 205.301,226.193 228.904,210.728 C252.508,195.265 286.52,205.247 304.873,233.019 C323.229,260.793 318.976,295.847 295.371,311.311 L295.371,311.311 Z M231.203,29.177 C232.016,33.284 232.935,35.878 233.985,36.643 C239.204,30.966 243.466,25.152 250.183,19.689 C250.206,22.897 248.588,26.38 252.587,28.925 C256.188,24.008 261.058,19.618 267.519,15.892 C264.406,21.342 266.983,22.998 268.659,25.256 C273.594,20.96 278.282,16.607 287.385,13.235 C284.898,16.312 281.42,19.317 285.107,22.852 C290.192,19.629 295.307,16.409 307.378,14.121 C304.656,17.199 299.031,20.278 302.443,23.358 C308.823,20.883 315.886,19.084 323.699,18.043 C319.959,21.167 316.837,24.228 319.904,26.647 C326.734,24.513 336.142,21.64 345.337,24.115 L339.517,30.064 C338.871,30.859 353.133,30.683 362.546,30.821 C359.11,35.667 355.608,40.344 353.564,48.664 C354.497,49.623 359.163,49.092 363.56,48.664 C359.05,58.303 351.215,60.736 349.388,64.86 C352.143,66.979 355.966,66.426 360.145,64.985 C356.898,71.777 350.087,76.431 344.707,81.941 C346.068,82.923 348.442,83.506 354.07,82.827 C349.1,88.191 343.092,93.095 335.976,97.505 C337.236,98.983 341.57,98.924 345.592,99.024 C339.146,105.43 330.847,108.752 323.07,112.942 C326.944,115.631 329.717,115.003 332.684,114.965 C327.186,119.553 317.831,121.941 309.151,124.71 C310.802,127.315 312.451,128.027 315.982,128.759 C306.792,133.921 293.63,131.562 289.917,134.2 C290.812,136.795 293.341,138.485 296.37,139.895 C281.573,140.766 241.112,139.347 233.355,108.26 C248.5,91.366 276.142,71.542 323.682,47.024 C286.694,59.595 253.316,76.347 225.382,99.404 C192.538,83.879 215.181,44.724 231.203,29.177 L231.203,29.177 Z M196.807,141.296 L196.807,141.293 C220.097,141.039 248.933,158.673 248.818,175.288 C248.717,189.954 228.566,201.826 196.986,201.601 C166.061,201.23 145.236,186.68 145.307,172.47 C145.371,160.775 170.56,140.613 196.807,141.296 L196.807,141.296 Z M79.087,128.76 C82.617,128.029 84.269,127.316 85.919,124.711 C77.238,121.942 67.884,119.554 62.384,114.966 C65.353,115.004 68.124,115.632 72.001,112.943 C64.225,108.752 55.926,105.43 49.48,99.025 C53.499,98.926 57.834,98.984 59.095,97.506 C51.979,93.096 45.972,88.192 41.002,82.828 C46.628,83.507 49.004,82.924 50.364,81.942 C44.984,76.432 38.174,71.778 34.927,64.986 C39.104,66.426 42.926,66.979 45.682,64.861 C43.853,60.736 36.021,58.303 31.51,48.665 C35.909,49.093 40.573,49.624 41.507,48.665 C39.466,40.348 35.962,35.671 32.528,30.826 C41.94,30.687 56.201,30.864 55.558,30.069 L49.738,24.123 C58.931,21.645 68.341,24.518 75.17,26.652 C78.238,24.233 75.116,21.172 71.375,18.048 C79.189,19.093 86.249,20.888 92.632,23.363 C96.041,20.283 90.418,17.204 87.697,14.126 C99.769,16.414 104.884,19.634 109.967,22.857 C113.655,19.321 110.178,16.317 107.689,13.24 C116.792,16.611 121.481,20.965 126.416,25.261 C128.089,23.002 130.669,21.346 127.554,15.896 C134.017,19.622 138.886,24.012 142.487,28.93 C146.487,26.385 144.868,22.903 144.891,19.693 C151.608,25.156 155.871,30.971 161.089,36.648 C162.139,35.882 163.059,33.289 163.872,29.184 C179.894,44.728 202.537,83.884 169.691,99.41 C141.756,76.369 108.394,59.618 71.426,47.05 C118.946,71.554 146.575,91.378 161.717,108.262 C153.96,139.349 113.496,140.768 98.701,139.897 C101.731,138.487 104.258,136.797 105.156,134.202 C101.441,131.563 88.278,133.922 79.087,128.76 L79.087,128.76 Z M133.636,152.417 C149.838,155.141 55.989,237.088 54.543,218.807 C53.065,171.125 89.656,144.989 133.636,152.417 L133.636,152.417 Z M35.104,335.021 C12.297,316.677 4.952,262.957 47.235,238.809 C72.718,231.979 55.839,344.231 35.104,335.021 L35.104,335.021 Z M124.009,431.174 C111.145,438.937 79.907,435.738 57.705,403.843 C42.731,377.078 44.66,349.841 55.175,341.841 C70.897,332.264 95.19,345.201 113.886,366.895 L113.885,366.895 C130.177,386.523 137.604,421.008 124.009,431.174 L124.009,431.174 Z M98.733,314.11 C75.13,298.644 70.878,263.594 89.23,235.819 C107.585,208.044 141.597,198.064 165.2,213.527 C188.803,228.993 193.057,264.044 174.702,291.818 C156.348,319.594 122.336,329.574 98.733,314.11 L98.733,314.11 Z M196.892,485.842 C168.598,487.064 140.854,462.666 141.217,454.209 C140.792,441.811 175.669,432.129 198.409,432.698 C221.294,431.697 251.999,440.069 252.061,451.172 C252.441,461.952 224.212,486.313 196.892,485.842 L196.892,485.842 Z M255.123,363.579 C255.288,392.589 229.919,416.228 198.461,416.383 C167,416.535 141.364,393.141 141.197,364.131 C141.196,363.948 141.196,363.765 141.197,363.579 C141.031,334.57 166.4,310.93 197.859,310.777 C229.32,310.623 254.957,334.014 255.124,363.025 L255.124,363.579 L255.123,363.579 Z M334.772,405.383 C310.391,439.214 277.383,440.532 265.087,431.109 C252.229,418.979 262.044,381.321 279.672,360.674 L279.672,360.668 C299.844,337.893 321.41,323.022 336.432,334.641 C346.547,344.716 352.478,382.663 334.772,405.383 L334.772,405.383 Z M353.855,333.628 C333.121,342.84 316.239,230.581 341.724,237.41 C384.008,261.557 376.663,315.284 353.855,333.628 L353.855,333.628 Z" id="Shape" sketch:type="MSShapeGroup"></path>
        </g>
    </g>
</svg>